<?xml version="1.0" encoding="UTF-8" standalone="no"?>
<!-- Created with Inkscape (http://www.inkscape.org/) -->

<svg
   width="156.08612mm"
   height="23.519772mm"
   viewBox="0 0 156.08612 23.519772"
   version="1.1"
   id="svg221"
   xmlns="http://www.w3.org/2000/svg"
   xmlns:svg="http://www.w3.org/2000/svg">
  <defs
     id="defs218" />
  <g
     id="layer1"
     transform="translate(-16.342539,-46.129962)">
    <path
       d="m 31.527762,51.806158 c 0.0175,-0.201507 0.0304,-0.390984 0.0515,-0.579684 0.0208,-0.186902 0.0523,-0.372216 0.15508,-0.535799 -0.0212,0.429401 -0.0525,0.855486 0.18891,1.285381 0.1101,-0.142205 0.20931,-0.259997 0.29701,-0.385904 0.16541,-0.23749 0.2765,-0.498898 0.26419,-0.793291 -0.0199,-0.477203 -0.24539,-0.863812 -0.5654,-1.200715 -0.0174,-0.01838 -0.0998,-0.0083 -0.1211,0.01591 -0.14821,0.167816 -0.30579,0.331293 -0.42761,0.517595 -0.35369,0.541091 -0.24098,1.181806 0.15741,1.676506 z m -7.51861,5.247388 c -0.32498,0.56572 -0.51678,1.15722 -0.40929,1.84613 0.13349,-0.0788 0.2516,-0.14263 0.3635,-0.21573 0.34541,-0.22549 0.64862,-0.49438 0.8212,-0.87979 0.15402,-0.34389 0.20161,-0.70019 0.1373,-1.0789 -0.0523,-0.30741 -0.1384,-0.6005 -0.25238,-0.88808 -0.033,-0.0831 -0.0813,-0.11152 -0.1657,-0.0652 -0.1331,0.073 -0.27051,0.13832 -0.40202,0.21403 -0.30858,0.17759 -0.57888,0.40347 -0.78299,0.69649 -0.33472,0.48048 -0.34509,1.0154 -0.2315,1.56499 0.0177,0.0854 0.0517,0.16739 0.0879,0.28201 0.34103,-0.84391 0.58932,-1.28891 0.834,-1.47592 z m 6.64962,-3.3088 c -0.0116,-0.0586 -0.01,-0.0862 -0.0218,-0.10407 -0.15638,-0.23051 -0.29901,-0.47283 -0.47639,-0.68591 -0.2553,-0.30681 -0.6011,-0.49029 -0.99109,-0.54479 -0.50581,-0.0708 -1.00383,0.002 -1.48562,0.17829 -0.072,0.0263 -0.0755,0.057 -0.0558,0.12319 0.11723,0.39419 0.3114,0.74531 0.56512,1.0674 0.28169,0.35772 0.65239,0.57129 1.09139,0.63959 0.39571,0.0616 0.79561,0.0278 1.18529,-0.08 0.11783,-0.0326 0.12432,-0.0552 0.0494,-0.15282 -0.2776,-0.36167 -0.6319,-0.62117 -1.0516,-0.79329 -0.14891,-0.0611 -0.29901,-0.119 -0.44863,-0.1784 0.0663,-0.0195 0.13163,-0.0231 0.19453,-0.012 0.50267,0.0886 0.97529,0.26201 1.44519,0.54279 z m -8.32771,5.7768 c 0.0189,-3.5e-4 0.0377,-7e-4 0.0566,-10e-4 0.0383,-0.28359 0.10319,-0.56677 0.10749,-0.851 0.004,-0.2945 -0.0321,-0.59299 -0.0827,-0.8841 -0.0698,-0.40139 -0.2691,-0.74397 -0.5437,-1.04429 -0.49311,-0.53919 -1.11421,-0.8714 -1.787,-1.12208 -0.0806,-0.0301 -0.13211,-0.009 -0.15663,0.0726 -0.0793,0.26268 -0.18387,0.52109 -0.2304,0.78959 -0.0843,0.48708 -0.12277,0.97959 -0.0154,1.47221 0.0721,0.33098 0.20108,0.63518 0.3992,0.9089 0.28349,0.39169 0.64781,0.69328 1.06631,0.92798 0.20369,0.11419 0.4191,0.20771 0.64989,0.32071 0.0611,-1.02641 -0.28142,-1.8898 -0.8303,-2.69131 0.64879,0.57609 1.0729,1.29621 1.36659,2.10199 z m 2.644,9.87051 c -0.18359,-0.0524 -0.37261,-0.0978 -0.5558,-0.16058 -0.28918,-0.0991 -0.57859,-0.1996 -0.8599,-0.3187 -0.26998,-0.1143 -0.53418,-0.24441 -0.7928,-0.38291 -0.38879,-0.2081 -0.77978,-0.41462 -1.1522,-0.65009 -0.28911,-0.18292 -0.5544,-0.40461 -0.82431,-0.61673 -0.53089,-0.4173 -1.02168,-0.87898 -1.46868,-1.38518 -3.67679,-4.1632 -3.97891,-10.3105 -0.74471,-14.812894 2.326,-3.2379 7.01082,-5.58232 11.0654,-4.774706 0.38929,0.07751 0.74701,0.269099 1.09121,0.478084 0.60121,0.36502 1.1429,0.802605 1.6219,1.315121 0.51971,0.556083 0.93828,1.179089 1.21228,1.897274 0.1639,0.429613 0.2449,0.872419 0.30272,1.325527 0.0469,0.367771 -0.002,0.723477 -0.0635,1.082074 -0.1857,1.08042 -0.71409,1.99281 -1.37999,2.8382 -0.10711,0.13611 -0.2171,0.27002 -0.3435,0.4269 -0.002,-0.052 -0.009,-0.0788 -0.004,-0.10319 0.049,-0.24359 0.10693,-0.48549 0.14891,-0.73021 0.0831,-0.4837 -0.0137,-0.94968 -0.14588,-1.41337 -0.2928,-1.02602 -0.96061,-1.728012 -1.90591,-2.162916 -0.39,-0.179317 -0.81379,-0.300391 -1.2343,-0.393206 -0.55062,-0.121497 -1.11651,-0.138607 -1.6806,-0.10661 -0.182,0.0103 -0.3629,0.04212 -0.5442,0.06403 -7e-4,0.01069 -0.001,0.02138 -0.002,0.0321 0.0493,0.0037 0.0989,0.01298 0.14792,0.0103 0.43131,-0.02342 0.85778,0.03147 1.26668,0.1524 0.56741,0.167887 1.09672,0.425979 1.56761,0.796396 0.52419,0.412396 0.93299,0.916096 1.21359,1.519986 0.15533,0.33429 0.22602,0.69289 0.27721,1.05921 0.0459,0.32911 -0.0186,0.63761 -0.0983,0.94679 -0.14863,0.57591 -0.48401,1.04111 -0.90153,1.44811 -0.3169,0.30879 -0.67789,0.54698 -1.111,0.67779 -0.49798,0.15029 -0.98499,0.33659 -1.47959,0.49852 -0.37461,0.12269 -0.75519,0.22708 -1.1304,0.34829 -0.32311,0.10439 -0.64879,0.20518 -0.9616,0.33588 -0.50031,0.20913 -1.00641,0.41293 -1.48181,0.67102 -0.68418,0.37141 -1.27078,0.87161 -1.69827,1.5349 -0.31112,0.48278 -0.51301,1.0093 -0.62661,1.57568 -0.0846,0.42133 -0.12682,0.84473 -0.1343,1.2712 -0.005,0.2878 0.005,0.57962 0.0477,0.8636 0.0663,0.43911 0.15511,0.8739 0.30769,1.29611 0.16429,0.45469 0.36911,0.88692 0.63532,1.287 0.3393,0.51019 0.74217,0.9706 1.2156,1.35851 0.38657,0.3168 0.8001,0.6004 1.20368,0.90029"
       style="fill:#82c927;fill-opacity:1;fill-rule:nonzero;stroke:none;stroke-width:0.352778"
       id="path35" />
    <path
       d="m 36.101952,54.777076 c 0.26363,-0.24282 0.32561,-0.53933 0.42161,-0.82423 0.002,0.13113 -0.0104,0.2594 -0.0305,0.3864 -0.02,0.12612 -0.0481,0.25093 -0.0758,0.39232 0.0348,-0.0159 0.0518,-0.0202 0.0645,-0.0301 0.53513,-0.4155 0.48052,-0.92841 0.2268,-1.44681 -0.0292,-0.0596 -0.077,-0.0724 -0.13617,-0.0281 -0.0778,0.0583 -0.16101,0.10922 -0.23851,0.16771 -0.3525,0.26631 -0.44401,0.62661 -0.35832,1.04211 0.023,0.11151 0.0791,0.21611 0.1264,0.34071 z m -0.40749,2.55129 c 0.25262,0.13458 0.52179,0.21308 0.80211,0.17579 0.4754,-0.0631 0.77678,-0.381 1.0191,-0.765 0.0133,-0.021 -0.0124,-0.096 -0.0374,-0.10749 -0.20602,-0.0942 -0.4088,-0.2171 -0.62661,-0.25989 -0.59591,-0.11723 -0.96421,0.10389 -1.3202,0.59739 -0.0128,0.0176 0.007,0.0883 0.0195,0.0902 0.12499,0.0203 0.25407,0.0547 0.37687,0.0404 0.23492,-0.0273 0.46641,-0.0837 0.71082,-0.13011 -0.2944,0.18281 -0.6011,0.31041 -0.94421,0.35871 z m -5.59559,5.73109 c 0.5091,0.9091 1.40381,0.93129 2.05081,0.44771 -0.48172,-0.9234 -1.19723,-1.05721 -1.84073,-0.73999 0.32011,0.0685 0.61853,0.17759 0.87672,0.38439 -0.3521,-0.1075 -0.70259,-0.20352 -1.0868,-0.0921 z m 0.3247,-2.68581 c -0.51622,-0.12449 -1.01632,-0.20038 -1.49832,0.0771 -0.40308,0.23209 -0.59319,0.61669 -0.74288,1.05879 0.50338,0.008 0.89701,-0.20648 1.27589,-0.46651 -0.2426,0.3284 -0.57919,0.53393 -0.94738,0.73653 0.0769,0.015 0.12527,0.0289 0.17448,0.0334 0.4989,0.0452 0.9386,-0.0635 1.27582,-0.4699 0.22987,-0.27718 0.358,-0.59849 0.46239,-0.9694 z m 5.92338,-1.31787 c -0.61898,-1.33883 -1.62069,-1.46032 -2.44199,-1.05551 0.46781,0.0821 0.87711,0.27319 1.24142,0.56688 -0.4856,-0.1772 -0.9671,-0.37758 -1.50213,-0.20228 0.007,0.0253 0.009,0.0431 0.0172,0.0572 0.17311,0.29711 0.39539,0.5504 0.68001,0.74422 0.23728,0.16168 0.4994,0.25368 0.78948,0.2225 0.23002,-0.0248 0.46299,-0.048 0.68542,-0.10689 0.1839,-0.0488 0.35419,-0.14881 0.53057,-0.2261 z m -6.52878,5.18149 c -0.13011,-0.1537 -0.23121,-0.2855 -0.34491,-0.4052 -0.49128,-0.51731 -1.0462,-0.88042 -1.80859,-0.77851 -0.34241,0.0457 -0.65059,0.16722 -0.94509,0.33641 -0.0263,0.0151 -0.0419,0.0491 -0.0577,0.0683 0.28921,0.045 0.5647,0.0853 0.8393,0.13141 0.20782,0.0349 0.68742,0.24627 0.77851,0.35119 -0.65151,-0.20701 -1.2773,-0.2449 -1.90959,0.0283 0.29538,0.35479 0.6198,0.63761 1.01988,0.81961 0.26811,0.12189 0.55079,0.19548 0.85051,0.15579 0.3803,-0.0505 0.7407,-0.16291 1.0679,-0.36721 0.16728,-0.10449 0.3285,-0.21868 0.5098,-0.34008 z m -0.21372,-1.4291 c -0.76058,-0.63831 -1.63717,-0.95102 -2.63828,-0.906 -0.98612,0.0442 -1.8771,0.3563 -2.6894,0.95539 0.0559,-0.17939 0.10051,-0.36329 0.16979,-0.53728 0.2189,-0.54963 0.55319,-1.02302 0.98012,-1.42981 0.3446,-0.32829 0.73868,-0.5897 1.15278,-0.8194 0.84811,-0.4706 1.75581,-0.8044 2.6623,-1.13742 0.3653,-0.1342 0.74302,-0.23968 1.1217,-0.3307 0.41059,-0.0987 0.83269,-0.1501 1.24301,-0.24997 0.50331,-0.12252 1.00079,-0.27002 1.4986,-0.41413 0.39761,-0.11518 0.76048,-0.30939 1.11368,-0.5213 0.46362,-0.2782 0.87323,-0.62138 1.22372,-1.0348 0.26021,-0.30699 0.4815,-0.63948 0.65789,-1.00168 0.006,-0.0134 0.007,-0.03 0.001,-0.0547 -0.94587,1.19161 -2.19378,1.8119 -3.6715,2.00162 -0.008,-0.011 -0.0153,-0.022 -0.0229,-0.0331 0.0592,-0.0497 0.12012,-0.0974 0.1772,-0.1494 2.8788,-2.6241 3.2622,-7.36388 -0.0806,-9.751374 -0.4222,-0.301519 -0.87432,-0.547405 -1.3354,-0.791316 0.0937,0.02579 0.18768,0.05041 0.28098,0.07761 6.19249,1.805305 9.78031,8.5101 7.92382,14.7144 -1.29632,4.33211 -6.82911,9.6901 -11.5812,7.90098 -0.55852,-0.21029 -1.091,-0.46157 -1.58041,-0.80489 -0.44129,-0.30939 -0.74211,-0.73001 -0.95719,-1.2149 -0.26533,-0.5982 -0.3175,-1.23349 -0.22102,-1.86849 0.14252,-0.93761 0.55901,-1.74032 1.29692,-2.35701 0.3527,-0.29478 0.75639,-0.48909 1.20329,-0.58268 0.3659,-0.0767 0.73088,-0.0679 1.09971,0.0293 0.29517,0.0778 0.57729,0.17441 0.84247,0.3242 0.0334,0.019 0.0769,0.0201 0.11571,0.0295 0.004,-0.0142 0.009,-0.0284 0.0132,-0.0426"
       style="fill:#298b72;fill-opacity:1;fill-rule:nonzero;stroke:none;stroke-width:0.352778"
       id="path37" />
    <path
       d="m 50.971782,49.827569 c 0,0.671689 0.26268,1.293389 0.78779,1.865806 0.52539,0.572491 1.16491,1.076081 1.91851,1.511091 0.75389,0.43501 1.5035,0.8775 2.24977,1.32768 0.7457,0.45042 1.381618,1.0034 1.906904,1.66003 0.52511,0.6562 0.787824,1.38119 0.787824,2.17448 0,1.2517 -0.460622,2.27419 -1.381898,3.0679 -0.92093,0.79372 -2.16571,1.19052 -3.73363,1.19052 -1.56827,0 -3.12148,-0.29781 -4.65917,-0.89292 v -1.07611 c 1.55279,0.77851 2.87387,1.1678 3.96247,1.1678 1.0886,0 1.93721,-0.2673 2.54642,-0.80158 0.60929,-0.53389 0.91338,-1.2743 0.91338,-2.2206 0,-0.64082 -0.25118,-1.2247 -0.75357,-1.75111 -0.50243,-0.5267 -1.11132,-0.98429 -1.827,-1.37358 -0.71582,-0.38932 -1.4309,-0.78983 -2.14672,-1.20212 -0.71568,-0.41191 -1.32458,-0.93469 -1.82729,-1.56789 -0.5021,-0.63359 -0.75332,-1.400316 -0.75332,-2.300817 0,-0.900606 0.39952,-1.740006 1.19881,-2.518198 0.79922,-0.778475 1.99069,-1.1678 3.5742,-1.1678 1.0353,0 2.34481,0.236714 3.928291,0.709824 l -0.228494,1.556773 c -2.055287,-0.885402 -3.813877,-1.327891 -5.275687,-1.327891 -0.7917,0.381706 -1.18759,1.037907 -1.18759,1.968712 z m 9.226691,12.522697 6.782682,-15.52152 h 0.342618 l 6.783211,15.52152 H 71.61736 l -1.712595,-4.1207 H 63.12166 l -1.689982,4.1207 z m 3.265805,-4.99061 h 6.074904 l -3.014627,-7.417399 z m 24.413986,5.24242 H 87.489961 L 77.486771,50.056768 h -0.0914 V 62.350266 H 76.39066 V 47.194965 h 1.689912 l 8.701193,11.011601 h 0.09179 V 47.194965 h 1.004711 z m 6.143307,-1.19052 V 47.194965 h 2.261094 v 14.216591 c 0,1.6788 -0.513892,3.10959 -1.54171,4.2926 -1.027394,1.18262 -2.272171,1.77412 -3.733976,1.77412 -0.776605,0 -1.537723,-0.10693 -2.283707,-0.32061 l 0.228212,-1.78562 c 0.410986,0.27492 0.936696,0.5152 1.575788,0.7214 0.63948,0.20581 1.187591,0.309 1.644579,0.309 0.517525,-0.3205 0.955428,-0.95769 1.312828,-1.91188 0.358104,-0.95381 0.536892,-1.98021 0.536892,-3.07901 z m 6.851509,0.93871 V 47.194965 h 9.1579 l -0.22811,1.533807 -4.2479,-0.709507 c -0.7463,0 -1.56831,0.129505 -2.46652,0.388902 v 5.562989 h 5.07013 v 0.87002 h -5.07013 v 6.68479 l 7.07962,-0.70951 -0.22811,1.53381 z m 12.83497,0 V 47.194965 h 9.15801 l -0.22818,1.533807 -4.2479,-0.709507 c -0.74602,0 -1.56803,0.129505 -2.46652,0.388902 v 5.562989 h 5.07012 v 0.87002 h -5.07012 v 6.68479 l 7.07972,-0.70951 -0.22821,1.53381 z m 17.79083,0.36618 -6.78282,-15.521481 h 2.48962 l 5.02437,12.408001 4.5218,-12.408001 h 1.14212 l -6.0295,15.521481 z m 6.85148,-0.36618 6.7831,-15.52152 h 0.34262 l 6.78307,15.52152 h -2.48948 l -1.71299,-4.1207 h -6.78282 l -1.69019,4.1207 z m 3.2658,-4.99061 h 6.07522 l -3.01462,-7.417399 z m 24.41441,5.24242 h -0.3883 L 155.63908,50.056768 h -0.0914 v 12.293498 h -1.00481 V 47.194965 h 1.68959 l 8.70162,11.011601 h 0.0914 V 47.194965 h 1.0051 z m 6.21171,-15.407111 v 15.155301 h -2.10093 V 47.194965 Z"
       style="fill:#298b72;fill-opacity:1;fill-rule:nonzero;stroke:none;stroke-width:0.352778"
       id="path39" />
    <path
       d="m 47.764852,65.209346 h 39.02481 v 2.99562 h -39.02481 z"
       style="fill:#70b92e;fill-opacity:1;fill-rule:evenodd;stroke:none;stroke-width:0.352778"
       id="path41" />
    <path
       d="m 98.96688,68.163476 v -3.5621 h 0.717374 v 3.5621 z m 1.4085,0 v -3.5621 h 0.69797 l 1.4545,2.37849 v -2.37849 h 0.66683 v 3.5621 h -0.72073 l -1.43189,-2.32322 v 2.32322 z m 3.39598,-1.1587 0.69829,-0.0687 c 0.0411,0.23541 0.12661,0.40799 0.25583,0.5182 0.1282,0.1095 0.3011,0.16499 0.5195,0.16499 0.23079,0 0.40528,-0.0489 0.52208,-0.1476 0.1173,-0.0976 0.17621,-0.21238 0.17621,-0.34319 0,-0.0845 -0.025,-0.15589 -0.0746,-0.2147 -0.0487,-0.0599 -0.13479,-0.11119 -0.25809,-0.15458 -0.0835,-0.0295 -0.27559,-0.0812 -0.57439,-0.15582 -0.38471,-0.0953 -0.6543,-0.21301 -0.8092,-0.3525 -0.2183,-0.19558 -0.32742,-0.43459 -0.32742,-0.71639 0,-0.18182 0.0513,-0.3508 0.1542,-0.5093 0.1022,-0.15741 0.25051,-0.27781 0.4432,-0.36061 0.1936,-0.0822 0.42612,-0.12368 0.69903,-0.12368 0.44679,0 0.78207,0.0977 1.00799,0.29368 0.22489,0.19661 0.3429,0.45759 0.35479,0.78511 l -0.7171,0.0315 c -0.0309,-0.18309 -0.097,-0.31492 -0.1979,-0.39451 -0.101,-0.0805 -0.25249,-0.1203 -0.45442,-0.1203 -0.20849,0 -0.37218,0.0424 -0.48958,0.12852 -0.0759,0.0546 -0.11409,0.12859 -0.11409,0.22059 0,0.0845 0.0356,0.15688 0.10657,0.2164 0.0901,0.0763 0.31031,0.15578 0.6592,0.23798 0.3495,0.0829 0.60763,0.16842 0.77463,0.25651 0.16697,0.0887 0.29789,0.2087 0.39318,0.3623 0.094,0.15349 0.14142,0.34262 0.14142,0.56709 0,0.20422 -0.0566,0.39592 -0.16972,0.57312 -0.11338,0.17851 -0.27319,0.31101 -0.47999,0.39748 -0.2068,0.0871 -0.46489,0.13021 -0.7736,0.13021 -0.44909,0 -0.794,-0.1039 -1.0347,-0.312 -0.24102,-0.2081 -0.38499,-0.5116 -0.43131,-0.90978 z m 4.29221,1.1587 v -2.9591 h -1.0541 v -0.603 h 2.82388 v 0.603 h -1.05138 v 2.9591 z m 2.21069,0 v -3.5621 h 0.7174 v 3.5621 z m 2.20091,0 v -2.9591 h -1.0541 v -0.603 h 2.82391 v 0.603 h -1.05142 v 2.9591 z m 2.22821,-3.5621 h 0.71737 v 1.92899 c 0,0.3061 0.009,0.505 0.0263,0.59538 0.0306,0.14601 0.1045,0.2631 0.21929,0.3508 0.11599,0.0888 0.27383,0.13293 0.4741,0.13293 0.20352,0 0.35772,-0.0415 0.4609,-0.12531 0.1033,-0.0828 0.16542,-0.18581 0.18609,-0.3067 0.0214,-0.12199 0.0313,-0.32361 0.0313,-0.60572 v -1.97037 h 0.71738 v 1.87109 c 0,0.42778 -0.0191,0.72958 -0.0576,0.9065 -0.0391,0.1766 -0.11042,0.32519 -0.2147,0.4468 -0.1039,0.12128 -0.24391,0.21829 -0.4179,0.2903 -0.17452,0.0724 -0.4027,0.10791 -0.68422,0.10791 -0.33891,0 -0.59598,-0.0388 -0.77159,-0.11772 -0.17562,-0.0789 -0.31369,-0.18091 -0.41529,-0.30611 -0.10192,-0.1253 -0.16891,-0.2571 -0.20123,-0.3949 -0.047,-0.2038 -0.0703,-0.505 -0.0703,-0.90378 z m 4.38919,3.5621 v -2.9591 h -1.05442 v -0.603 h 2.82431 v 0.603 h -1.05181 v 2.9591 z m 2.2328,0 v -3.5621 h 2.63451 v 0.603 h -1.9171 v 0.78938 h 1.784 v 0.59972 h -1.784 v 0.96957 h 1.98519 v 0.60043 z m 4.5447,-1.75902 c 0,-0.36329 0.054,-0.66781 0.16249,-0.91401 0.0808,-0.18087 0.19099,-0.34428 0.33101,-0.4886 0.1398,-0.1433 0.2927,-0.25047 0.459,-0.3199 0.22189,-0.0947 0.47681,-0.14107 0.76641,-0.14107 0.52338,0 0.9423,0.16248 1.25627,0.48827 0.31461,0.32523 0.47181,0.7782 0.47181,1.35792 0,0.57531 -0.15649,1.0251 -0.46849,1.3499 -0.31172,0.32459 -0.72859,0.48701 -1.24972,0.48701 -0.52899,0 -0.94918,-0.16182 -1.26089,-0.48433 -0.312,-0.32349 -0.46789,-0.7687 -0.46789,-1.33519 z m 0.7391,-0.024 c 0,0.40308 0.0934,0.7088 0.2788,0.91729 0.18609,0.20811 0.42221,0.31172 0.7082,0.31172 0.2854,0 0.52049,-0.10291 0.70401,-0.31013 0.18277,-0.2068 0.27449,-0.5158 0.27449,-0.92908 0,-0.40802 -0.0891,-0.71211 -0.26702,-0.91369 -0.1785,-0.20091 -0.41617,-0.3012 -0.71148,-0.3012 -0.29619,0 -0.5346,0.10199 -0.71571,0.30519 -0.18048,0.20309 -0.27129,0.5092 -0.27129,0.9199 z m 3.2724,1.78301 v -3.5621 h 2.4366 v 0.603 h -1.71852 v 0.84268 h 1.48343 v 0.60272 h -1.48343 v 1.5137 z m 7.42721,0 h -0.78123 l -0.30998,-0.80952 h -1.42071 l -0.29291,0.80952 h -0.76119 l 1.3842,-3.5621 h 0.7585 z m -1.3214,-1.40921 -0.4899,-1.322 -0.48003,1.322 z m 1.72089,1.40921 v -3.53311 h 0.71709 v 2.93268 h 1.78392 v 0.60043 z m 3.03198,0 v -3.53311 h 0.71741 v 2.93268 h 1.784 v 0.60043 z m 2.99131,0 v -3.5621 h 0.71709 v 3.5621 z m 1.4012,0 v -3.5621 h 2.63461 v 0.603 h -1.9171 v 0.78938 h 1.78389 v 0.59972 h -1.78389 v 0.96957 h 1.98508 v 0.60043 z m 3.30891,-3.5621 h 1.31149 c 0.29492,0 0.52052,0.0224 0.67599,0.0681 0.2081,0.0612 0.38703,0.17061 0.5353,0.32851 0.14891,0.15649 0.26233,0.34911 0.33991,0.5763 0.077,0.22789 0.11581,0.50828 0.11581,0.84268 0,0.29263 -0.0362,0.54543 -0.10922,0.7578 -0.0884,0.2588 -0.21498,0.46852 -0.38068,0.62872 -0.124,0.12188 -0.29199,0.21661 -0.5037,0.28441 -0.15822,0.0506 -0.36992,0.0756 -0.6356,0.0756 h -1.3493 z m 0.71741,0.603 v 2.35867 h 0.53527 c 0.2002,0 0.34491,-0.0108 0.4343,-0.0342 0.11571,-0.0289 0.21241,-0.0779 0.2897,-0.1476 0.0769,-0.0697 0.139,-0.18479 0.18772,-0.34421 0.048,-0.15921 0.073,-0.37708 0.073,-0.65271 0,-0.2752 -0.025,-0.48588 -0.073,-0.63348 -0.0487,-0.14771 -0.1167,-0.2631 -0.20352,-0.34491 -0.0878,-0.0832 -0.19858,-0.13879 -0.33278,-0.16771 -0.0999,-0.023 -0.29619,-0.0339 -0.58882,-0.0339 z m 4.25079,2.9591 v -3.5621 h 0.7184 v 1.40158 h 1.40561 v -1.40158 h 0.71737 v 3.5621 h -0.71737 v -1.5575 h -1.40561 v 1.55751 z m 3.58338,0 v -3.5621 h 2.63433 v 0.603 h -1.9172 v 0.78938 h 1.78399 v 0.59972 h -1.78399 v 0.96957 h 1.98518 v 0.60043 z m 6.51552,0 h -0.7808 l -0.31041,-0.80951 h -1.42071 l -0.29259,0.80952 h -0.7614 l 1.38409,-3.5621 h 0.75851 z m -1.32101,-1.40921 -0.49018,-1.322 -0.47971,1.322 z m 1.7205,1.40921 v -3.53311 h 0.71741 v 2.93268 h 1.78399 v 0.60043 z m 3.44431,0 v -2.9591 h -1.0541 v -0.603 h 2.82399 v 0.603 h -1.05149 v 2.9591 z m 2.23481,0 v -3.5621 h 0.71797 v 1.40158 h 1.40593 v -1.40158 h 0.71737 v 3.5621 h -0.71737 v -1.5575 h -1.40593 v 1.55751 z"
       style="fill:#70b92e;fill-opacity:1;fill-rule:nonzero;stroke:none;stroke-width:0.352778"
       id="path43" />
  </g>
</svg>
